<svg xmlns="http://www.w3.org/2000/svg" xmlns:xlink="http://www.w3.org/1999/xlink" version="1.1" viewBox="141.99 62.41 145.01 175.17"><g transform="translate(-25.5,-30)"><g data-paper-data="{&quot;isPaintingLayer&quot;:true}" fill-rule="nonzero" stroke="none" stroke-linecap="butt" stroke-linejoin="miter" stroke-miterlimit="10" stroke-dasharray="" stroke-dashoffset="0" style="mix-blend-mode: normal"><path d="M25.5,330v-300h429v300z" fill="none" stroke-width="0"/><path d="M272.75316,119.87807c-0.69306,1.21659 -35.06679,31.2113 -36.27435,37.35764c-38.04978,-33.89607 0.07404,-63.92002 1.49185,-64.82092c2.46404,0.28438 34.73787,25.47187 34.7825,27.46328z" fill="#f8544c" stroke-width="1"/><path d="M301.85773,157.67646c2.11221,3.66907 4.02799,8.13575 5.68525,12.51762c0.47154,4.2598 1.11299,7.94138 1.91319,11.58813c4.99207,8.0276 -16.46556,44.33018 -29.27804,42.29179c-1.12302,12.94484 -2.68626,25.52314 -9.44795,36.95046c-0.57885,0.20027 -9.88792,4.48697 -26.21405,6.31778c-0.32358,-3.10872 -0.12775,-5.58496 0.31665,-8.21287c1.3177,-0.37457 27.97257,-55.45948 26.03395,-60.20483c-0.6928,-2.43225 -2.2408,-4.73991 -2.61158,-6.95116c2.22193,-1.69186 26.99825,-32.65286 28.0462,-34.4613c0.47038,-0.81174 5.55638,0.16438 5.55638,0.16438z" fill="#fc945b" stroke-width="1"/><path d="M236.40347,157.25756c0.90791,-6.29319 5.26963,-10.31218 10.11986,-13.86255c3.88567,-2.84431 7.64643,-5.45666 9.88153,-10.30124c1.61117,-3.49219 5.62408,-5.86611 8.52262,-8.78168c0.72766,-0.73193 5.88325,-4.42377 6.85564,-5.46483c0.94801,0.27317 14.60349,13.88188 16.23416,17.33114c0.36079,0.81732 -24.87289,36.50103 -33.20665,40.94816c-5.7362,-5.35243 -18.40717,-19.869 -18.40717,-19.869z" fill="#fc6a50" stroke-width="1"/><path d="M270.57231,261.11949c6.4081,-11.47475 7.97134,-24.10066 9.09436,-37.0455c0.25693,-2.96161 4.70392,-6.21133 7.94299,-8.07869c3.21629,-1.85422 6.78182,-2.69804 7.0988,-7.19637c0.02003,-0.28438 0.29242,-0.68658 0.54988,-0.79869c5.67419,-2.47105 6.20207,-9.0735 10.39706,-12.86086c3.82507,-3.45339 4.39249,-8.32957 3.28931,-13.35718c-0.8002,-3.64675 -1.54786,-9.10206 -1.97032,-12.99607c5.02917,8.92913 6.05976,20.64476 5.31315,30.58008c-2.12433,28.26845 -15.67674,49.16367 -41.71524,61.75327z" fill="#fbb16c" stroke-width="1"/><path d="M253.28133,173.27715c8.00304,-4.48479 15.81086,-9.41121 19.57311,-18.34352c0.4162,-0.98814 1.50607,-1.76286 2.41931,-2.4582c2.79593,-2.12883 10.54238,-13.85058 12.10482,-17.32696c2.23754,2.19013 12.5387,18.52302 14.6171,22.75243c-0.06896,1.32483 0.02312,2.46249 -0.44727,3.27422c-1.04794,1.80844 -2.01706,4.14053 -3.67374,5.00902c-2.65053,1.38954 -5.83322,1.76395 -8.88628,2.59338c0.08229,3.95161 -0.42229,6.67762 -5.16815,7.08697c-1.45201,0.12525 -3.20934,4.00764 -3.68033,6.39558c-0.61354,3.11071 -1.1017,4.99496 -4.92214,5.4272c-2.06728,0.23389 -4.11572,3.09422 -6.61538,4.59619c-3.03731,-2.9368 -5.24467,-6.08728 -7.87283,-9.27634c-2.47161,-3.39404 -7.44822,-9.72997 -7.44822,-9.72997z" fill="#fc8055" stroke-width="1"/><path d="M229.72909,150.04146c-10.46117,16.58245 -27.44662,40.67069 -27.22533,42.53295c-3.40771,-2.72388 -16.11448,-16.11565 -16.71237,-16.61601c-7.57997,-31.49453 12.52727,-49.20423 17.69892,-52.3739c1.21508,0.09883 25.98129,25.65202 26.23879,26.45697z" fill="#d73b53" stroke-width="1"/><path d="M244.83419,259.33104c-0.07083,2.55124 -0.16546,5.03105 -0.23824,7.99337c-4.768,0.32829 -16.31546,0.98734 -24.69403,-2.82542c-16.69209,-6.61367 6.15417,-38.58545 8.93386,-46.34456c14.75715,6.63832 13.92533,32.42769 15.99841,41.17661z" fill="#ec3c45" stroke-width="1"/><path d="M228.80604,220.34314c-2.43051,7.8065 -4.81795,15.62685 -7.31667,23.41145c-0.79237,2.46857 -1.11449,4.75587 -3.79803,6.79118c-5.20587,3.94838 -3.45754,11.01971 2.53558,13.1532c0.87849,0.31273 1.54933,1.00354 2.43927,1.88081c-6.8283,-2.56412 -15.77783,-4.87388 -21.32628,-9.58405c-2.15407,-5.19446 7.19152,-46.79278 14.14899,-50.93169c1.77695,1.35641 9.33715,7.69755 11.70107,10.03347c0.68873,1.76488 0.9649,3.81775 1.61607,5.24564z" fill="#d93951" stroke-width="1"/><path d="M217.29156,204.63944c2.38657,6.62228 -3.5179,12.42647 -6.81932,17.61545c-1.12043,1.76103 -1.97807,3.76306 -2.57771,5.76804c-1.93133,6.45767 -3.83565,12.93153 -5.43701,19.47584c-0.65307,2.66893 -0.50183,5.53467 -0.75032,8.78804c-7.25422,-5.41348 -13.33207,-9.95023 -14.0348,-13.10706c-2.75827,-8.18414 17.16725,-42.97399 17.1,-49.19848c3.74863,3.38942 12.51916,10.65817 12.51916,10.65817z" fill="#c43359" stroke-width="1"/><path d="M190.44097,179.40182c-4.75933,-0.52121 -17.45665,35.27915 -17.45659,42.48598c-11.19812,-27.90072 -2.63205,-53.54143 2.54811,-57.9509c4.41779,4.35403 14.90847,15.46492 14.90847,15.46492z" fill="#8e3b75" stroke-width="1"/><path d="M204.4215,194.91567c0.42313,6.26353 -2.54715,11.82093 -5.63042,17.0722c-1.27052,2.16385 -1.4347,4.96234 -2.19548,7.44353c-1.67077,5.44896 -3.73177,10.80454 -4.99073,16.3443c-0.83834,3.6889 -0.5671,7.62996 -0.76251,11.85568c-4.30046,-4.60588 -9.88684,-10.22236 -13.00902,-15.9093c1.46378,-3.24773 13.44854,-40.77247 15.16039,-48.74684c2.88498,2.5245 9.6299,8.36477 9.83134,8.54302c0.75072,1.42445 1.59643,3.39741 1.59643,3.39741z" fill="#b12f61" stroke-width="1"/><path d="M192.97287,182.88268c2.10069,9.14439 -1.09388,16.88689 -5.88219,24.151c-0.92839,1.40842 -0.78396,3.48698 -1.32114,5.19777c-1.21282,3.86256 -2.47744,7.71178 -3.84572,11.52164c-1.02884,2.86476 -2.25168,5.65984 -3.74946,8.56241c-2.35097,-4.01492 -4.34065,-8.10632 -6.0728,-12.81122c-0.31724,-5.27328 0.00349,-9.70572 3.26435,-13.49468c0.37372,-0.43424 0.24004,-1.28124 0.40958,-1.91879c1.65646,-6.22934 3.44308,-12.42686 4.95744,-18.69031c1.2042,-4.98064 4.34871,-7.19488 9.23894,-6.4063c0.83389,1.02548 3.001,3.88848 3.001,3.88848z" fill="#9a2969" stroke-width="1"/><path d="M261.95178,184.22936c-7.68574,8.23213 -30.25015,29.4236 -33.86954,32.22707c-2.63119,-1.84763 -5.97295,-5.0512 -8.27833,-7.07403c-1.46276,-1.28347 -2.87141,-2.62862 -4.64835,-3.98503c-3.73678,-3.3893 -7.32754,-6.34367 -11.07618,-9.73309c-0.71624,-1.08802 -1.75359,-3.28301 -2.16025,-4.66442c-0.61166,-2.23774 -0.45597,-3.36311 -0.83327,-5.30495c-0.65704,-3.38159 -0.37887,-6.05289 2.93094,-8.66376c5.52024,-4.35452 10.43529,-9.52876 15.29031,-14.656c3.35009,-3.53793 5.81723,-9.8857 9.02219,-14.02091c2.59823,1.92963 5.4001,6.48571 8.14951,8.88145c5.70512,5.46161 11.11059,10.77636 16.84679,16.12878c2.63153,3.14314 8.62617,10.86489 8.62617,10.86489z" fill="#f13c43" stroke-width="1"/><path d="M244.83276,259.87937c-2.44664,-8.67224 -4.76972,-18.04616 -6.61257,-27.46271c1.48877,-1.32269 31.63832,-31.191 32.54132,-33.99254c1.91881,4.37077 4.11041,9.56001 5.81344,14.01329c0.74943,1.95975 1.04797,4.2019 1.05109,6.31657c0.00963,6.53238 2.52975,13.63676 -6.57136,17.36469c-4.76627,1.95232 -8.67606,6.26775 -12.54883,9.96043c-1.13479,1.08202 -0.81462,3.68993 -1.20986,5.86575c-1.58392,0.24319 -3.17229,0.48706 -5.24157,0.80478c2.82877,4.54085 0.95158,5.96216 -3.51857,5.71016c-0.9244,-0.05212 -3.70309,1.41958 -3.70309,1.41958z" fill="#fb724f" stroke-width="1"/><path d="M270.86671,198.92453c-0.8832,3.17612 -1.78619,5.97766 -2.79346,9.10268c-4.41444,0.86135 -9.1058,1.84797 -8.5635,8.31403c0.0482,0.57469 -1.31244,1.83804 -1.97673,1.80934c-4.2771,-0.18483 -4.97778,2.1247 -3.5824,6.79906c-6.77879,-3.57393 -8.93917,0.41011 -11.08785,4.90509c-0.48897,1.02292 -3.04628,1.73923 -4.54803,2.66508c-2.27881,-2.54718 -3.63583,-5.76732 -5.72394,-8.54585c-0.93742,-1.24734 -2.46503,-2.44995 -3.84848,-3.67191c-1.00037,-1.47528 -1.48862,-2.69896 -1.87251,-4.61515c3.58183,-3.14046 7.38988,-5.65876 10.41375,-8.60888c7.99582,-7.8008 15.7186,-16.22764 23.57514,-24.17121c2.45737,2.90049 4.95639,6.18986 7.69149,9.28024c0.95073,2.24756 1.62373,4.30522 2.31653,6.73747z" fill="#fb5648" stroke-width="1"/></g></g></svg>